<svg xmlns="http://www.w3.org/2000/svg" width="15" height="15.03" viewBox="0 0 15 15.03">
  <defs>
    <style>
      .cls-1 {
        fill: #feb960;
        fill-rule: evenodd;
      }
    </style>
  </defs>
  <path id="_" data-name="îƒ" class="cls-1" d="M1282.33,1511.37a4.761,4.761,0,0,1,.69,2.8c0,0.49-.01.9-0.02,1.22s-0.04.73-.1,1.24a5.764,5.764,0,0,1-.26,1.26,7.263,7.263,0,0,1-.5,1.09,2.791,2.791,0,0,1-.79.93,3.951,3.951,0,0,1-1.2.59,5.287,5.287,0,0,1-1.64.23,14.281,14.281,0,0,1-2.62-.19,4.191,4.191,0,0,1-1.44-.45,8.113,8.113,0,0,1-.75-0.53,2.941,2.941,0,0,0-.89-0.45,4.909,4.909,0,0,0-1.54-.19l-0.44-.06v-7.5a2.221,2.221,0,0,0,.34-0.13,5.224,5.224,0,0,0,.82-0.49,6.368,6.368,0,0,0,1-.85,4.563,4.563,0,0,0,.86-1.33,5.733,5.733,0,0,0,.47-1.83v-0.23a0.8,0.8,0,0,1,.34-0.52,1.3,1.3,0,0,1,.83-0.25,0.841,0.841,0,0,1,.78.62,3.844,3.844,0,0,1,.22,1.52v2.55h4.24A1.973,1.973,0,0,1,1282.33,1511.37Zm-14.31,7.49v-7.47a0.9,0.9,0,0,1,.28-0.66,0.87,0.87,0,0,1,.66-0.28,0.9,0.9,0,0,1,.66.28,0.931,0.931,0,0,1,.27.66v7.47a0.931,0.931,0,0,1-.27.66,0.941,0.941,0,0,1-.66.28,0.956,0.956,0,0,1-.94-0.94h0Z" transform="translate(-1268.03 -1505.72)"/>
</svg>
