<svg xmlns="http://www.w3.org/2000/svg" width="14.59" height="14.5" viewBox="0 0 14.59 14.5">
  <defs>
    <style>
      .cls-1 {
        fill: #feb960;
        fill-rule: evenodd;
      }
    </style>
  </defs>
  <path id="_" data-name="" class="cls-1" d="M1268.28,1468.1a0.944,0.944,0,0,1-.26-0.68v-12.19a0.937,0.937,0,0,1,.26-0.67,0.9,0.9,0,0,1,.68-0.26h8.43a0.9,0.9,0,0,1,.68.26,0.937,0.937,0,0,1,.26.67v5.01a3.316,3.316,0,0,1,1.36,1.21,3.213,3.213,0,0,1-.13,3.69l2.87,2.9a0.393,0.393,0,0,1,0,.64,0.422,0.422,0,0,1-.32.15,0.635,0.635,0,0,1-.35-0.15l-2.87-2.87a2.539,2.539,0,0,1-.56.35v1.26a0.892,0.892,0,0,1-.94.94h-8.43A0.944,0.944,0,0,1,1268.28,1468.1Zm10.99-4.9a2.356,2.356,0,1,0-.69,1.66A2.252,2.252,0,0,0,1279.27,1463.2Zm-2.81-5.62a0.418,0.418,0,0,0-.47-0.47h-5.63a0.47,0.47,0,1,0,0,.94h5.63A0.418,0.418,0,0,0,1276.46,1457.58Zm-6.57,2.81a0.418,0.418,0,0,0,.47.47h4.28a3.05,3.05,0,0,1,1.58-.85,0.3,0.3,0,0,0-.23-0.09h-5.63A0.418,0.418,0,0,0,1269.89,1460.39Zm0,2.81a0.414,0.414,0,0,0,.47.47h3.34a2.4,2.4,0,0,1-.06-0.47,2.593,2.593,0,0,1,.06-0.47h-3.34A0.418,0.418,0,0,0,1269.89,1463.2Z" transform="translate(-1268.03 -1454.31)"/>
</svg>
