<svg xmlns="http://www.w3.org/2000/svg" width="12" height="7.09" viewBox="0 0 12 7.09">
  <defs>
    <style>
      .cls-1 {
        fill: #feb960;
        fill-rule: evenodd;
      }
    </style>
  </defs>
  <path id="_" data-name="#" class="cls-1" d="M879.41,2619.01a0.648,0.648,0,0,1,.031-0.19,0.3,0.3,0,0,1,.125-0.15l3-3a0.429,0.429,0,0,1,.7-0.02,0.435,0.435,0,0,1-.016.71l-2.125,2.15h9.781a0.5,0.5,0,0,1,.36.14,0.511,0.511,0,0,1,.14.36,0.478,0.478,0,0,1-.14.36,0.5,0.5,0,0,1-.36.14h-9.781l2.125,2.16a0.488,0.488,0,1,1-.688.69l-3-3a0.363,0.363,0,0,1-.125-0.16,0.6,0.6,0,0,1-.031-0.19h0Z" transform="translate(-879.406 -2615.47)"/>
</svg>
