<svg xmlns="http://www.w3.org/2000/svg" width="12" height="7.06" viewBox="0 0 12 7.06">
  <defs>
    <style>
      .cls-1 {
        fill: #feb960;
        fill-rule: evenodd;
      }
    </style>
  </defs>
  <path id="_" data-name="" class="cls-1" d="M563.5,2518.27h9.781l-2.125-2.16a0.386,0.386,0,0,1,0-.68,0.393,0.393,0,0,1,.688,0l3,3a0.334,0.334,0,0,1,.125.15,0.6,0.6,0,0,1,0,.38,0.334,0.334,0,0,1-.125.15l-3,3a0.393,0.393,0,0,1-.688,0,0.386,0.386,0,0,1,0-.68l2.125-2.16H563.5a0.5,0.5,0,0,1,0-1h0Z" transform="translate(-563 -2515.25)"/>
</svg>
