<svg xmlns="http://www.w3.org/2000/svg" width="11.254" height="15" viewBox="0 0 11.254 15">
  <defs>
    <style>
      .cls-1 {
        fill: #feb960;
        fill-rule: evenodd;
      }
    </style>
  </defs>
  <path id="_" data-name="" class="cls-1" d="M1002.14,1457.11v11.25a0.87,0.87,0,0,1-.58.88,1.67,1.67,0,0,1-.35.06,0.912,0.912,0,0,1-.68-0.27l-4.01-4.04-4.014,4.04a0.9,0.9,0,0,1-.674.27,1.563,1.563,0,0,1-.351-0.06,0.873,0.873,0,0,1-.586-0.88v-11.25h11.245Zm-11.245-.94v-0.94a0.914,0.914,0,0,1,.263-0.67,0.894,0.894,0,0,1,.674-0.26h9.378a0.882,0.882,0,0,1,.67.26,0.9,0.9,0,0,1,.26.67v0.94H990.9Z" transform="translate(-990.906 -1454.31)"/>
</svg>
