<svg xmlns="http://www.w3.org/2000/svg" width="13.151" height="15.03" viewBox="0 0 13.151 15.03">
  <defs>
    <style>
      .cls-1 {
        fill: #feb960;
        fill-rule: evenodd;
      }
    </style>
  </defs>
  <path id="_" data-name="î˜" class="cls-1" d="M991.235,1520.46a0.918,0.918,0,0,1-.278-0.66v-13.13a0.953,0.953,0,0,1,.938-0.94h11.275a0.919,0.919,0,0,1,.68.28,0.965,0.965,0,0,1,.26.66v13.13a0.965,0.965,0,0,1-.26.66,0.912,0.912,0,0,1-.68.27H991.9A0.917,0.917,0,0,1,991.235,1520.46Zm5.479-11.78a0.461,0.461,0,0,0-.132.34,0.454,0.454,0,0,0,.132.33,0.447,0.447,0,0,0,.337.13h3.779a0.452,0.452,0,0,0,.34-0.13,0.487,0.487,0,0,0,.13-0.33,0.494,0.494,0,0,0-.13-0.34,0.452,0.452,0,0,0-.34-0.13h-3.779A0.447,0.447,0,0,0,996.714,1508.68Zm-2.813,2.81a0.464,0.464,0,0,0-.131.34,0.481,0.481,0,0,0,.131.34,0.488,0.488,0,0,0,.337.13h6.592a0.494,0.494,0,0,0,.34-0.13,0.513,0.513,0,0,0,.13-0.34,0.494,0.494,0,0,0-.13-0.34,0.452,0.452,0,0,0-.34-0.13h-6.592A0.447,0.447,0,0,0,993.9,1511.49Zm0,2.81a0.507,0.507,0,0,0,0,.68,0.447,0.447,0,0,0,.337.13h6.592a0.452,0.452,0,0,0,.34-0.13,0.47,0.47,0,0,0-.34-0.81h-6.592A0.488,0.488,0,0,0,993.9,1514.3Zm0,2.82a0.441,0.441,0,0,0-.131.33,0.464,0.464,0,0,0,.131.34,0.447,0.447,0,0,0,.337.13h6.592a0.452,0.452,0,0,0,.34-0.13,0.494,0.494,0,0,0,.13-0.34,0.469,0.469,0,0,0-.13-0.33,0.46,0.46,0,0,0-.34-0.14h-6.592A0.454,0.454,0,0,0,993.9,1517.12Z" transform="translate(-990.969 -1505.72)"/>
</svg>
